<svg xmlns="http://www.w3.org/2000/svg" viewBox="0 0 24 30" x="0px" y="0px"><title>Artboard 36</title><g data-name="Layer 2"><path d="M21.687,6.73a.752.752,0,0,0-.369.995A10.145,10.145,0,0,1,22.25,12,10.25,10.25,0,1,1,12,1.75a.75.75,0,0,0,0-1.5A11.741,11.741,0,1,0,22.682,7.1.753.753,0,0,0,21.687,6.73Z"/><path d="M22,2.25a5.015,5.015,0,0,1-2.564-.86,6.145,6.145,0,0,0-2-.927,1.714,1.714,0,0,0-1.494.3,1.748,1.748,0,0,0-.687,1.4v8.392A4.737,4.737,0,1,0,16.75,14V2.162a.259.259,0,0,1,.1-.207.217.217,0,0,1,.2-.041,4.618,4.618,0,0,1,1.517.7A6.474,6.474,0,0,0,22,3.75a.75.75,0,0,0,0-1.5Zm-10,15A3.25,3.25,0,1,1,15.25,14,3.254,3.254,0,0,1,12,17.25Z"/></g><text x="0" y="39" fill="#000000" font-size="5px" font-weight="bold" font-family="'Helvetica Neue', Helvetica, Arial-Unicode, Arial, Sans-serif">Created by Nursila</text><text x="0" y="44" fill="#000000" font-size="5px" font-weight="bold" font-family="'Helvetica Neue', Helvetica, Arial-Unicode, Arial, Sans-serif">from the Noun Project</text></svg>